HIERARCHY
ROOT Hips
{
	OFFSET -3.958830 18.904000 13.208200
	CHANNELS 6 Xposition Yposition Zposition Zrotation Yrotation Xrotation 
	JOINT LHipJoint
	{
		OFFSET 0.000000 0.000000 0.000000
		CHANNELS 3 Zrotation Yrotation Xrotation
		JOINT LeftUpLeg
		{
			OFFSET 1.800000 -1.400000 0.085000
			CHANNELS 3 Zrotation Yrotation Xrotation
			JOINT LeftLeg
			{
				OFFSET 2.215000 -6.000000 0.000000
				CHANNELS 3 Zrotation Yrotation Xrotation
				JOINT LeftFoot
				{
					OFFSET 2.500000 -6.900000 0.000000
					CHANNELS 3 Zrotation Yrotation Xrotation
					JOINT LeftToeBase
					{
						OFFSET 0.200000 -0.500000 1.950000
						CHANNELS 3 Zrotation Yrotation Xrotation
						End Site
						{
							OFFSET 0.000000 0.000000 0.000000
						}
					}
				}
			}
		}
	}
	JOINT RHipJoint
	{
		OFFSET 0.000000 0.000000 0.000000
		CHANNELS 3 Zrotation Yrotation Xrotation
		JOINT RightUpLeg
		{
			OFFSET -1.800000 -1.400000 0.085000
			CHANNELS 3 Zrotation Yrotation Xrotation
			JOINT RightLeg
			{
				OFFSET -2.215000 -6.000000 0.000000
				CHANNELS 3 Zrotation Yrotation Xrotation
				JOINT RightFoot
				{
					OFFSET -2.500000 -6.900000 0.000000
					CHANNELS 3 Zrotation Yrotation Xrotation
					JOINT RightToeBase
					{
						OFFSET -0.200000 -0.500000 1.950000
						CHANNELS 3 Zrotation Yrotation Xrotation
						End Site
						{
							OFFSET 0.000000 0.000000 0.000000
						}
					}
				}
			}
		}
	}
	JOINT LowerBack
	{
		OFFSET 0.000000 0.000000 0.000000
		CHANNELS 3 Zrotation Yrotation Xrotation
		JOINT Spine
		{
			OFFSET -0.087000 1.940000 -0.288900
			CHANNELS 3 Zrotation Yrotation Xrotation
			JOINT Spine1
			{
				OFFSET 0.000000 1.950000 0.060000
				CHANNELS 3 Zrotation Yrotation Xrotation
				JOINT Neck
				{
					OFFSET 0.000000 0.000000 0.000000
					CHANNELS 3 Zrotation Yrotation Xrotation
					JOINT Neck1
					{
						OFFSET 0.000000 1.600000 0.340000
						CHANNELS 3 Zrotation Yrotation Xrotation
						JOINT Head
						{
							OFFSET 0.000000 1.667000 -0.240000
							CHANNELS 3 Zrotation Yrotation Xrotation
							End Site
							{
								OFFSET 0.000000 0.000000 0.000000
							}
						}
					}
				}
				JOINT LeftShoulder
				{
					OFFSET 0.000000 0.000000 0.000000
					CHANNELS 3 Zrotation Yrotation Xrotation
					JOINT LeftArm
					{
						OFFSET 2.700000 1.550000 -0.730000
						CHANNELS 3 Zrotation Yrotation Xrotation
						JOINT LeftForeArm
						{
							OFFSET 5.450000 0.000000 0.000000
							CHANNELS 3 Zrotation Yrotation Xrotation
							JOINT LeftHand
							{
								OFFSET 3.450000 0.000000 0.000000
								CHANNELS 3 Zrotation Yrotation Xrotation
								JOINT LeftHandIndex1
								{
									OFFSET 0.750000 0.000000 0.000000
									CHANNELS 3 Zrotation Yrotation Xrotation
									End Site
									{
										OFFSET 0.000000 0.000000 0.000000
									}
								}
							}
						}
					}
				}
				JOINT RightShoulder
				{
					OFFSET 0.000000 0.000000 0.000000
					CHANNELS 3 Zrotation Yrotation Xrotation
					JOINT RightArm
					{
						OFFSET -2.700000 1.550000 -0.730000
						CHANNELS 3 Zrotation Yrotation Xrotation
						JOINT RightForeArm
						{
							OFFSET -5.450000 0.000000 0.000000
							CHANNELS 3 Zrotation Yrotation Xrotation
							JOINT RightHand
							{
								OFFSET -3.450000 0.000000 0.000000
								CHANNELS 3 Zrotation Yrotation Xrotation
								JOINT RightHandIndex1
								{
									OFFSET -0.750000 0.000000 0.000000
									CHANNELS 3 Zrotation Yrotation Xrotation
									End Site
									{
										OFFSET 0.000000 0.000000 0.000000
									}
								}
							}
						}
					}
				}
			}
		}
	}
}
MOTION
Frames: 4
Frame Time: 0.016667
0.278770 17.580540 -5.951840 -21.588901 80.232298 -28.867372 -15.735403 13.715863 3.148880 -1.269227 2.223020 4.519113 -5.068463 5.830068 8.978972 0.331132 4.470802 3.073779 0.515190 0.452500 0.482180 17.764118 -10.749889 2.176488 -9.529227 -0.421583 -5.486880 7.066206 -5.918992 15.111664 -0.324974 -4.141366 2.900187 0.193710 -0.024400 0.236760 -2.784282 -2.524084 -6.483094 -3.158604 -0.792226 1.365870 2.389289 -1.578361 21.279474 1.566294 -0.604452 -12.589979 -4.154209 6.688014 49.164751 -5.919190 10.236550 1.317950 3.948685 -5.488882 7.391879 -31.382848 -16.402906 -0.949769 115.376197 -14.874722 -32.450225 -3.689514 3.544319 0.064290 0.110560 0.120960 0.166950 -6.008150 6.876529 6.956753 36.013754 20.806593 -0.436308 -110.925302 27.694093 -50.355923 2.266284 -2.246551 0.127540 -0.152680 -0.330730 -0.026940 
0.268380 17.550700 -5.866760 -16.451804 78.476578 -25.760966 -15.780196 13.649930 3.129285 -0.981484 2.617584 6.491975 -4.999775 6.101129 9.612036 0.316579 4.739005 2.986068 0.517250 0.437030 0.505740 17.745689 -10.761894 2.164955 -9.472320 -0.557557 -3.098741 6.337691 -5.878708 14.762651 -0.375324 -4.287253 2.859587 0.205260 -0.028170 0.235980 -2.826660 -2.385147 -6.460867 -2.821161 0.032240 1.772232 2.206054 -0.631846 21.941110 1.679182 -0.751058 -12.177894 -4.409587 6.292805 49.358913 -7.155260 9.891940 -0.978540 1.907929 -7.198972 6.655572 -30.118923 -18.657619 -1.602212 116.688274 -10.354390 -27.172400 -3.698443 3.523513 0.113800 0.106860 0.125690 0.143730 -4.079262 9.028332 7.204950 36.080145 22.062269 -1.238482 -113.619059 23.155806 -47.794838 2.217943 -2.260194 0.094480 -0.110380 -0.299380 -0.060870 
0.254410 17.531520 -5.795460 -17.352091 77.365095 -28.900306 -15.806766 13.619875 3.026490 0.482287 2.763631 8.278445 -4.917295 6.398704 10.466350 0.370204 4.918050 2.900810 0.653300 0.628250 0.560670 17.755526 -10.689453 2.216085 -8.982992 -0.908914 0.193424 6.216843 -5.926048 13.889147 -0.511018 -4.504727 2.788136 0.306880 -0.084250 0.234920 -2.953826 -2.290841 -6.437910 -1.490897 0.257257 2.944265 1.783602 -0.267858 23.251559 1.263572 -1.159141 -11.202649 -5.043849 6.711434 49.348180 -4.755910 8.660220 -4.902740 1.144253 -7.590328 5.976463 -29.328926 -21.386759 -1.676966 117.892816 -7.319879 -24.068750 -3.624213 3.599896 0.124220 0.049780 0.191170 0.186280 -2.498190 9.897707 6.329790 34.000234 24.284659 -1.718890 -113.601352 19.568174 -43.443302 2.205440 -2.326628 0.147750 -0.094680 -0.371360 -0.036070 
0.220800 17.510230 -5.724490 -14.922514 76.096721 -28.334161 -15.821140 13.553575 3.017454 1.258512 3.105286 10.313951 -5.133729 6.564345 9.870952 0.423450 5.125910 2.843055 0.702640 0.696290 0.574880 17.774916 -10.618058 2.213403 -9.071478 -1.015380 2.084829 6.423398 -6.084004 13.792168 -0.588176 -4.685527 2.718726 0.349690 -0.072450 0.245950 -2.869309 -2.359317 -6.423112 -1.514809 0.930806 4.001279 2.567561 0.423448 24.279553 0.858390 -1.738062 -10.406819 -6.042431 6.981190 48.390644 -3.247900 7.610950 -7.225610 -0.021878 -8.005362 5.450900 -28.173709 -23.106360 -1.715053 118.979681 -5.731176 -22.599539 -3.613383 3.610462 0.131840 0.034190 0.214120 0.207240 -0.516212 11.205936 5.747837 29.596597 24.936446 -2.810528 -113.408197 18.207515 -41.348606 2.189745 -2.314179 0.160990 -0.056590 -0.382270 -0.016520 
